<svg width="14" height="14" viewBox="0 0 14 14" fill="none" xmlns="http://www.w3.org/2000/svg">
<g id="Frame">
<g id="Group">
<path id="Vector" d="M10.7317 7.27247C10.3216 6.54785 9.68182 5.92517 8.92768 5.49316L8.69993 3.8502C9.35103 3.37529 9.77791 2.64406 9.77791 1.81485C9.77791 1.10241 8.33807 0.777832 7.00022 0.777832C5.66238 0.777832 4.22253 1.10241 4.22253 1.81488C4.22253 2.64413 4.64947 3.37539 5.30065 3.8503L5.07222 5.49364C4.31842 5.92526 3.67888 6.54756 3.26879 7.27247C3.09356 7.58161 3.06317 7.95784 3.1847 8.30419C3.29592 8.62092 3.52704 8.8779 3.81809 9.00956C4.69134 9.40475 5.68766 9.5421 6.49542 9.57938L6.72299 12.9792C6.73221 13.1159 6.85346 13.2223 7.00022 13.2223C7.07089 13.2223 7.13891 13.1972 7.19042 13.152C7.24194 13.1068 7.27306 13.0451 7.27745 12.9792L7.50505 9.57938C8.31278 9.5421 9.30908 9.40477 10.1821 9.00981C10.4734 8.8779 10.7045 8.62092 10.8157 8.30419C10.9372 7.95784 10.9069 7.58161 10.7317 7.27247Z" fill="white"/>
</g>
</g>
</svg>
