<svg width="14" height="14" viewBox="0 0 14 14" fill="none" xmlns="http://www.w3.org/2000/svg">
<g id="replay">
<mask id="mask0_169_14682" style="mask-type:alpha" maskUnits="userSpaceOnUse" x="0" y="0" width="14" height="14">
<rect id="Bounding box" width="14" height="14" fill="#D9D9D9"/>
</mask>
<g mask="url(#mask0_169_14682)">
<path id="replay_2" d="M1.75 7.48337H1.65V7.58337C1.65 8.32557 1.7911 9.02221 2.07393 9.67223C2.3558 10.32 2.73707 10.8848 3.21783 11.3655C3.69859 11.8463 4.26333 12.2276 4.91114 12.5094C5.56116 12.7923 6.2578 12.9334 7 12.9334C7.7422 12.9334 8.43884 12.7923 9.08886 12.5094C9.73667 12.2276 10.3014 11.8463 10.7822 11.3655C11.2629 10.8848 11.6442 10.32 11.9261 9.67223C12.2089 9.02221 12.35 8.32557 12.35 7.58337C12.35 6.84118 12.2089 6.14454 11.9261 5.49452C11.6442 4.8467 11.2629 4.28196 10.7822 3.80121C10.3014 3.32045 9.73667 2.93918 9.08886 2.6573C8.48338 2.39385 7.83745 2.25338 7.15193 2.23536L7.88738 1.49992L7.95686 1.43044L7.88861 1.35975L7.07194 0.513915L7.00125 0.440701L6.92929 0.512663L4.59596 2.846L4.52525 2.91671L4.59596 2.98742L6.92929 5.32075L7.00125 5.39271L7.07194 5.3195L7.88861 4.47367L7.95686 4.40298L7.88738 4.3335L7.15651 3.60263C8.19989 3.63741 9.08736 4.02257 9.82408 4.75929C10.5974 5.53258 10.9833 6.47195 10.9833 7.58337C10.9833 8.6948 10.5974 9.63416 9.82408 10.4075C9.05079 11.1807 8.11143 11.5667 7 11.5667C5.88857 11.5667 4.94921 11.1807 4.17592 10.4075C3.40263 9.63416 3.01667 8.6948 3.01667 7.58337V7.48337H2.91667H1.75Z" fill="white" stroke="white" stroke-width="0.2"/>
</g>
</g>
</svg>
