<svg width="24" height="24" viewBox="0 0 24 24" fill="none" xmlns="http://www.w3.org/2000/svg">
<g id="alarm">
<mask id="mask0_535_3853" style="mask-type:alpha" maskUnits="userSpaceOnUse" x="0" y="0" width="24" height="24">
<rect id="Bounding box" width="24" height="24" fill="#D9D9D9"/>
</mask>
<g mask="url(#mask0_535_3853)">
<path id="alarm_2" d="M12.0016 22C10.7516 22 9.58073 21.7625 8.48906 21.2875C7.3974 20.8125 6.4474 20.1708 5.63906 19.3625C4.83073 18.5541 4.18906 17.6041 3.71406 16.5125C3.23906 15.4208 3.00156 14.25 3.00156 13C3.00156 11.75 3.23906 10.5791 3.71406 9.48748C4.18906 8.39581 4.83073 7.44581 5.63906 6.63748C6.4474 5.82914 7.3974 5.18748 8.48906 4.71248C9.58073 4.23748 10.7516 3.99998 12.0016 3.99998C13.2516 3.99998 14.4224 4.23748 15.5141 4.71248C16.6057 5.18748 17.5557 5.82914 18.3641 6.63748C19.1724 7.44581 19.8141 8.39581 20.2891 9.48748C20.7641 10.5791 21.0016 11.75 21.0016 13C21.0016 14.25 20.7641 15.4208 20.2891 16.5125C19.8141 17.6041 19.1724 18.5541 18.3641 19.3625C17.5557 20.1708 16.6057 20.8125 15.5141 21.2875C14.4224 21.7625 13.2516 22 12.0016 22ZM14.8016 17.2L16.2016 15.8L13.0016 12.6V7.99998H11.0016V13.4L14.8016 17.2ZM5.60156 2.34998L7.00156 3.74998L2.75156 7.99998L1.35156 6.59998L5.60156 2.34998ZM18.4016 2.34998L22.6516 6.59998L21.2516 7.99998L17.0016 3.74998L18.4016 2.34998ZM12.0016 20C13.9516 20 15.6057 19.3208 16.9641 17.9625C18.3224 16.6041 19.0016 14.95 19.0016 13C19.0016 11.05 18.3224 9.39581 16.9641 8.03748C15.6057 6.67914 13.9516 5.99998 12.0016 5.99998C10.0516 5.99998 8.3974 6.67914 7.03906 8.03748C5.68073 9.39581 5.00156 11.05 5.00156 13C5.00156 14.95 5.68073 16.6041 7.03906 17.9625C8.3974 19.3208 10.0516 20 12.0016 20Z" fill="white"/>
</g>
</g>
</svg>
