<svg width="16" height="16" viewBox="0 0 16 16" fill="none" xmlns="http://www.w3.org/2000/svg">
<g id="splitscreen">
<mask id="mask0_278_1715" style="mask-type:alpha" maskUnits="userSpaceOnUse" x="0" y="0" width="16" height="16">
<rect id="Bounding box" width="16" height="16" fill="#D9D9D9"/>
</mask>
<g mask="url(#mask0_278_1715)">
<path id="splitscreen_2" d="M4.0013 5.99992H12.0013V2.66659H4.0013V5.99992ZM4.0013 7.33325C3.63464 7.33325 3.32075 7.2027 3.05964 6.94159C2.79852 6.68047 2.66797 6.36658 2.66797 5.99992V2.66659C2.66797 2.29992 2.79852 1.98603 3.05964 1.72492C3.32075 1.46381 3.63464 1.33325 4.0013 1.33325H12.0013C12.368 1.33325 12.6819 1.46381 12.943 1.72492C13.2041 1.98603 13.3346 2.29992 13.3346 2.66659V5.99992C13.3346 6.36658 13.2041 6.68047 12.943 6.94159C12.6819 7.2027 12.368 7.33325 12.0013 7.33325H4.0013ZM4.0013 13.3333H12.0013V9.99992H4.0013V13.3333ZM4.0013 14.6666C3.63464 14.6666 3.32075 14.536 3.05964 14.2749C2.79852 14.0138 2.66797 13.6999 2.66797 13.3333V9.99992C2.66797 9.63325 2.79852 9.31936 3.05964 9.05825C3.32075 8.79714 3.63464 8.66658 4.0013 8.66658H12.0013C12.368 8.66658 12.6819 8.79714 12.943 9.05825C13.2041 9.31936 13.3346 9.63325 13.3346 9.99992V13.3333C13.3346 13.6999 13.2041 14.0138 12.943 14.2749C12.6819 14.536 12.368 14.6666 12.0013 14.6666H4.0013Z" fill="#1C1B1F"/>
</g>
</g>
</svg>
