<svg width="16" height="16" viewBox="0 0 16 16" fill="none" xmlns="http://www.w3.org/2000/svg">
<g id="add_circle">
<mask id="mask0_1_1105" style="mask-type:alpha" maskUnits="userSpaceOnUse" x="0" y="0" width="16" height="16">
<rect id="Bounding box" width="16" height="16" fill="#D9D9D9"/>
</mask>
<g mask="url(#mask0_1_1105)">
<path id="add_circle_2" d="M7.99998 14.6667C7.07776 14.6667 6.21109 14.4917 5.39998 14.1417C4.58887 13.7917 3.88331 13.3167 3.28331 12.7167C2.68331 12.1167 2.20831 11.4112 1.85831 10.6C1.50831 9.78893 1.33331 8.92226 1.33331 8.00004C1.33331 7.07782 1.50831 6.21115 1.85831 5.40004C2.20831 4.58893 2.68331 3.88337 3.28331 3.28337C3.88331 2.68337 4.58887 2.20837 5.39998 1.85837C6.21109 1.50837 7.07776 1.33337 7.99998 1.33337C8.9222 1.33337 9.78887 1.50837 10.6 1.85837C11.4111 2.20837 12.1166 2.68337 12.7166 3.28337C13.3166 3.88337 13.7916 4.58893 14.1416 5.40004C14.4916 6.21115 14.6666 7.07782 14.6666 8.00004C14.6666 8.92226 14.4916 9.78893 14.1416 10.6C13.7916 11.4112 13.3166 12.1167 12.7166 12.7167C12.1166 13.3167 11.4111 13.7917 10.6 14.1417C9.78887 14.4917 8.9222 14.6667 7.99998 14.6667Z" fill="white"/>
<path id="check_indeterminate_small" d="M4.66669 9.00004V7.33337H11.3334V9.00004H4.66669Z" fill="#243A48"/>
</g>
</g>
</svg>
