<svg width="24" height="24" viewBox="0 0 24 24" fill="none" xmlns="http://www.w3.org/2000/svg">
<g id="Frame" clip-path="url(#clip0_77_155)">
<g id="Group">
<path id="Vector" d="M12 15.9844C14.2005 15.9844 15.9844 14.2005 15.9844 12C15.9844 9.79949 14.2005 8.01562 12 8.01562C9.79949 8.01562 8.01562 9.79949 8.01562 12C8.01562 14.2005 9.79949 15.9844 12 15.9844Z" fill="#999999"/>
<path id="Vector_2" d="M6.73383 10.8474C7.26314 8.42705 9.42309 6.60938 12 6.60938H22.7279C22.1587 5.47936 21.406 4.43541 20.4853 3.51469C18.2188 1.24823 15.2053 0 12 0C8.79469 0 5.78123 1.24823 3.51469 3.51469C3.29792 3.73153 3.08938 3.95643 2.88951 4.18894L6.73383 10.8474Z" fill="#999999"/>
<path id="Vector_3" d="M13.635 17.1369C13.1064 17.3054 12.5548 17.391 12 17.3906C9.99759 17.3906 8.24681 16.2931 7.31728 14.668C7.31053 14.6578 7.30405 14.6474 7.29783 14.6368L1.96927 5.40747C0.688172 7.3481 0 9.62106 0 12C0 15.2053 1.24823 18.2187 3.51469 20.4853C5.25108 22.2216 7.42608 23.3595 9.78966 23.7972L13.635 17.1369Z" fill="#999999"/>
<path id="Vector_4" d="M15.6271 8.01562C16.71 9.00225 17.3906 10.4231 17.3906 12C17.3906 12.9918 17.1211 13.9216 16.6519 14.7208C16.6471 14.73 16.643 14.7393 16.6378 14.7484L11.3081 23.9797C11.5376 23.9927 11.7683 24 12 24C15.2053 24 18.2188 22.7518 20.4853 20.4853C22.7518 18.2188 24 15.2053 24 12C24 10.6216 23.7685 9.27891 23.3252 8.01562H15.6271Z" fill="#999999"/>
</g>
</g>
<defs>
<clipPath id="clip0_77_155">
<rect width="24" height="24" fill="white"/>
</clipPath>
</defs>
</svg>
