<svg width="36" height="40" viewBox="0 0 36 40" fill="none" xmlns="http://www.w3.org/2000/svg">
<g id="Group 151">
<path id="Rectangle 4861" d="M0 0H31C33.7614 0 36 2.23858 36 5V35C36 37.7614 33.7614 40 31 40H0V0Z" fill="url(#paint0_linear_1_7328)"/>
<g id="replay">
<mask id="mask0_1_7328" style="mask-type:alpha" maskUnits="userSpaceOnUse" x="8" y="10" width="20" height="20">
<rect id="Bounding box" x="8" y="10" width="20" height="20" fill="#D9D9D9"/>
</mask>
<g mask="url(#mask0_1_7328)">
<path id="replay_2" d="M18 28.3334C16.9583 28.3334 15.9826 28.1355 15.0729 27.7396C14.1632 27.3438 13.3715 26.8091 12.6979 26.1355C12.0243 25.4618 11.4896 24.6702 11.0938 23.7605C10.6979 22.8507 10.5 21.875 10.5 20.8334H12.1667C12.1667 22.4584 12.7326 23.8368 13.8646 24.9688C14.9965 26.1007 16.375 26.6667 18 26.6667C19.625 26.6667 21.0035 26.1007 22.1354 24.9688C23.2674 23.8368 23.8333 22.4584 23.8333 20.8334C23.8333 19.2084 23.2674 17.8299 22.1354 16.698C21.0035 15.566 19.625 15 18 15H17.875L19.1667 16.2917L18 17.5L14.6667 14.1667L18 10.8334L19.1667 12.0417L17.875 13.3334H18C19.0417 13.3334 20.0174 13.5313 20.9271 13.9271C21.8368 14.323 22.6285 14.8577 23.3021 15.5313C23.9757 16.2049 24.5104 16.9966 24.9062 17.9063C25.3021 18.816 25.5 19.7917 25.5 20.8334C25.5 21.875 25.3021 22.8507 24.9062 23.7605C24.5104 24.6702 23.9757 25.4618 23.3021 26.1355C22.6285 26.8091 21.8368 27.3438 20.9271 27.7396C20.0174 28.1355 19.0417 28.3334 18 28.3334Z" fill="#FFB427"/>
</g>
</g>
</g>
<defs>
<linearGradient id="paint0_linear_1_7328" x1="-2.51457e-07" y1="2.5" x2="33.5" y2="40" gradientUnits="userSpaceOnUse">
<stop stop-color="#252525" stop-opacity="0"/>
<stop offset="1"/>
</linearGradient>
</defs>
</svg>
