<svg width="24" height="24" viewBox="0 0 24 24" fill="none" xmlns="http://www.w3.org/2000/svg">
<g id="Frame" clip-path="url(#clip0_77_245)">
<g id="Group">
<path id="Vector" d="M12 27C20.2842 27 27 20.2843 27 12C27 3.71573 20.2842 -3 12 -3C3.71571 -3 -3.00002 3.71573 -3.00002 12C-3.00002 20.2843 3.71571 27 12 27Z" fill="#C0C0C0"/>
<path id="Vector_2" d="M12.2049 3.00887C8.43473 3.00887 4.85458 2.67376 3.4871 6.18053C2.92225 7.62889 3.00428 9.50988 3.00428 12.2032C3.00428 14.5667 2.92848 16.788 3.4871 18.2249C4.85146 21.7338 8.46069 21.3976 12.2028 21.3976C15.8131 21.3976 19.5355 21.7732 20.9196 18.2249C21.4855 16.762 21.4024 14.9091 21.4024 12.2032C21.4024 8.6114 21.6007 6.29258 19.8574 4.55164C18.0922 2.78788 15.7051 3.00887 12.2007 3.00887H12.2049ZM11.3805 4.66577C19.2448 4.65332 20.2457 3.77974 19.6933 15.9154C19.4971 20.2076 16.2263 19.7366 12.2059 19.7366C4.87534 19.7366 4.66456 19.527 4.66456 12.1991C4.66456 4.78612 5.24603 4.66992 11.3805 4.66369V4.66577ZM17.1162 6.19194C16.8235 6.19194 16.5427 6.30814 16.3357 6.51496C16.1287 6.72179 16.0124 7.00231 16.0124 7.29481C16.0124 7.58731 16.1287 7.86783 16.3357 8.07465C16.5427 8.28148 16.8235 8.39768 17.1162 8.39768C17.4089 8.39768 17.6897 8.28148 17.8966 8.07465C18.1036 7.86783 18.2199 7.58731 18.2199 7.29481C18.2199 7.00231 18.1036 6.72179 17.8966 6.51496C17.6897 6.30814 17.4089 6.19194 17.1162 6.19194ZM12.2049 7.48156C11.5844 7.48163 10.97 7.60381 10.3968 7.84114C9.82356 8.07846 9.30273 8.42628 8.86403 8.86473C7.97804 9.75021 7.48037 10.9511 7.48051 12.2032C7.48064 13.4554 7.97858 14.6562 8.86477 15.5415C9.75096 16.4268 10.9528 16.924 12.2059 16.9239C13.4591 16.9238 14.6608 16.4262 15.5468 15.5407C16.4328 14.6552 16.9305 13.4543 16.9303 12.2022C16.9302 10.9501 16.4323 9.74929 15.5461 8.86399C14.6599 7.9787 13.458 7.48142 12.2049 7.48156ZM12.2049 9.13846C16.2596 9.13846 16.2648 15.268 12.2049 15.268C8.15127 15.268 8.14504 9.13846 12.2049 9.13846Z" fill="white"/>
</g>
</g>
<defs>
<clipPath id="clip0_77_245">
<rect width="24" height="24" fill="white"/>
</clipPath>
</defs>
</svg>
