<svg width="21" height="20" viewBox="0 0 21 20" fill="none" xmlns="http://www.w3.org/2000/svg">
<g id="keyboard_voice">
<mask id="mask0_1_7419" style="mask-type:alpha" maskUnits="userSpaceOnUse" x="0" y="0" width="21" height="20">
<rect id="Bounding box" x="0.421875" width="20" height="20" fill="#D9D9D9"/>
</mask>
<g mask="url(#mask0_1_7419)">
<path id="keyboard_voice_2" d="M10.4212 11.6666C9.72678 11.6666 9.1365 11.4236 8.65039 10.9375C8.16428 10.4513 7.92122 9.86107 7.92122 9.16663V4.16663C7.92122 3.47218 8.16428 2.8819 8.65039 2.39579C9.1365 1.90968 9.72678 1.66663 10.4212 1.66663C11.1157 1.66663 11.7059 1.90968 12.1921 2.39579C12.6782 2.8819 12.9212 3.47218 12.9212 4.16663V9.16663C12.9212 9.86107 12.6782 10.4513 12.1921 10.9375C11.7059 11.4236 11.1157 11.6666 10.4212 11.6666ZM9.58789 17.5V14.9375C8.14345 14.743 6.949 14.0972 6.00456 13C5.06011 11.9027 4.58789 10.625 4.58789 9.16663H6.25456C6.25456 10.3194 6.66081 11.302 7.47331 12.1145C8.28581 12.927 9.26845 13.3333 10.4212 13.3333C11.574 13.3333 12.5566 12.927 13.3691 12.1145C14.1816 11.302 14.5879 10.3194 14.5879 9.16663H16.2546C16.2546 10.625 15.7823 11.9027 14.8379 13C13.8934 14.0972 12.699 14.743 11.2546 14.9375V17.5H9.58789Z" fill="white"/>
</g>
</g>
</svg>
