<svg width="24" height="24" viewBox="0 0 24 24" fill="none" xmlns="http://www.w3.org/2000/svg">
<g id="Frame" clip-path="url(#clip0_77_220)">
<path id="Vector" d="M12 24C18.6274 24 24 18.6274 24 12C24 5.37258 18.6274 0 12 0C5.37258 0 0 5.37258 0 12C0 18.6274 5.37258 24 12 24Z" fill="#999999"/>
<g id="Group">
<g id="Group 1">
<path id="Vector_2" d="M18.8683 5.59998H18.3556L12.2032 10.4583L6.05088 5.59998H5.53819C4.68916 5.59998 4.0001 6.28904 4.0001 7.13806V16.3666C4.0001 17.2156 4.68916 17.9047 5.53819 17.9047H6.05088V8.31316L12.2032 13.0453L18.3556 8.31213V17.9047H18.8683C19.7173 17.9047 20.4063 17.2156 20.4063 16.3666V7.13806C20.4063 6.28904 19.7173 5.59998 18.8683 5.59998Z" fill="white"/>
</g>
</g>
</g>
<defs>
<clipPath id="clip0_77_220">
<rect width="24" height="24" fill="white"/>
</clipPath>
</defs>
</svg>
