<svg width="18" height="18" viewBox="0 0 18 18" fill="none" xmlns="http://www.w3.org/2000/svg">
<g id="Frame">
<g id="Group">
<path id="Vector" d="M13.7976 9.35025C13.2703 8.41859 12.4478 7.618 11.4782 7.06256L11.1853 4.95019C12.0225 4.33959 12.5713 3.39944 12.5713 2.33331C12.5713 1.41731 10.7201 1 9.00001 1C7.27992 1 5.42869 1.41731 5.42869 2.33334C5.42869 3.39953 5.97761 4.33972 6.81484 4.95031L6.52114 7.06319C5.55197 7.61812 4.72971 8.41822 4.20245 9.35025C3.97716 9.74772 3.93808 10.2314 4.09434 10.6768C4.23734 11.084 4.53448 11.4144 4.9087 11.5837C6.03145 12.0918 7.31243 12.2683 8.35098 12.3163L8.64357 16.6875C8.65542 16.8633 8.81131 17 9.00001 17C9.09087 17 9.17833 16.9677 9.24455 16.9097C9.31078 16.8516 9.3508 16.7721 9.35645 16.6875L9.64907 12.3163C10.6876 12.2683 11.9685 12.0918 13.091 11.584C13.4656 11.4144 13.7627 11.084 13.9057 10.6768C14.0619 10.2314 14.0229 9.74772 13.7976 9.35025Z" fill="#999999"/>
</g>
</g>
</svg>
