<svg width="24" height="24" viewBox="0 0 24 24" fill="none" xmlns="http://www.w3.org/2000/svg">
<g id="Frame" clip-path="url(#clip0_77_239)">
<g id="Group">
<g id="Layer 2">
<g id="13.Skype">
<path id="Vector" d="M12 24C18.6274 24 24 18.6274 24 12C24 5.37258 18.6274 0 12 0C5.37258 0 0 5.37258 0 12C0 18.6274 5.37258 24 12 24Z" fill="#C0C0C0"/>
<path id="Vector_2" d="M17.94 13.3342C18.8542 9.22897 15.2558 5.49634 11.0321 6.2116C8.7379 4.78897 5.68421 6.39634 5.68421 9.12634C5.68292 9.73737 5.84657 10.3374 6.1579 10.8632C5.30842 14.9795 8.93684 18.6569 13.1574 17.8911C16.1463 19.4732 19.4447 16.3263 17.94 13.3342ZM13.9247 15.81C12.8195 16.2663 10.9911 16.2695 9.88737 15.6916C8.30842 14.8516 8.03369 12.9616 9.39158 12.9616C10.4147 12.9616 10.0911 14.1553 11.1284 14.6416C11.6021 14.8611 12.6221 14.8832 13.2142 14.4837C13.8063 14.0842 13.7368 13.4763 13.4211 13.1811C12.5779 12.4027 10.1668 12.7074 9.06316 11.3495C8.80598 11.0034 8.66882 10.5828 8.67253 10.1516C8.67623 9.72039 8.8206 9.3022 9.08369 8.96055C10.11 7.63897 13.1211 7.55844 14.4174 8.55634C15.6126 9.4816 15.2905 10.71 14.3242 10.71C13.1637 10.71 13.7747 9.19108 11.9005 9.19108C10.5426 9.19108 10.0058 10.1574 10.9642 10.6279C12.2653 11.2721 15.5684 11.0527 15.5684 13.579C15.5684 14.6258 14.9242 15.4074 13.9247 15.8148V15.81Z" fill="white"/>
</g>
</g>
</g>
</g>
<defs>
<clipPath id="clip0_77_239">
<rect width="24" height="24" fill="white"/>
</clipPath>
</defs>
</svg>
