<svg width="24" height="24" viewBox="0 0 24 24" fill="none" xmlns="http://www.w3.org/2000/svg">
<g id="Frame" clip-path="url(#clip0_77_161)">
<g id="Group">
<path id="Vector" d="M21.1311 8.53059L21.3398 8.68032H21.5344V8.30573L22.1479 8.24625L22.7307 8.68032H23.6885L23.7558 8.61876C23.6606 8.29741 23.5521 7.98011 23.4308 7.66767L22.8058 7.67811L22.4922 7.33377L22.4317 6.78023L22.1103 6.95553L21.9382 7.63219L21.4744 7.13865L21.4556 6.67224L21.008 6.28669L20.8431 6.12235H20.324L20.4873 6.58511L21.1123 6.93362L21.2208 7.04892L21.0852 7.11674L21.0914 7.48351L20.7867 7.6108L20.5269 7.55394L20.3642 7.32386L20.7873 7.34629L20.9015 7.19239L19.965 6.56059L19.893 6.29138L19.5127 6.63572L19.1272 6.55642L18.5402 7.31969L18.4244 7.61863L18.0488 7.65254L17.4932 7.65619L17.1608 7.50072L17.0627 6.84075L17.1822 6.52616L17.7477 6.40251L18.3644 6.52616L18.4401 6.18495L18.1782 6.12287L18.2674 5.59124L18.8882 5.4942L19.3223 4.88118L19.7704 4.80606L20.1748 4.86605H20.324L20.2416 4.29008L19.7501 4.48833L19.5769 4.05791L19.2915 4.01826L19.2378 3.72349L19.4705 3.46994L20.024 3.25291L20.1664 2.99831C18.0509 1.13474 15.2779 4.23438e-06 12.2436 4.23438e-06C9.70922 -0.00213032 7.23995 0.802807 5.19369 2.29817L5.79888 2.29347L6.06861 2.44268L6.57676 2.55224L6.61641 2.75206L7.42455 2.7818L7.31499 2.5225L6.5971 2.50216L6.76614 2.34303L6.70719 2.15313H6.05817L6.76614 1.62463H7.44437L7.76314 2.06391L8.29216 2.09365L8.61093 1.78427L8.8504 1.90375L8.41111 2.3326C8.41111 2.3326 7.80331 2.34355 7.83305 2.34355C7.86279 2.34355 7.88314 2.76197 7.88314 2.76197L8.62032 2.74162L8.70014 2.54285L9.20829 2.51259L9.26829 2.21365L8.96935 2.16304L9.069 1.89384L9.29803 1.82445L10.0957 1.8641L9.65593 2.26321L9.72688 2.57207L10.1855 2.64198L10.1557 2.08374L10.5945 1.85418L11.3724 1.76445L12.4988 2.26321V2.69206L12.8577 2.7818L12.6777 3.12091H12.169L12.0183 3.50959L10.8574 3.23569L11.771 2.74893L11.423 2.45312L10.6352 2.55276L10.5663 2.62424L10.5637 2.62319L10.5517 2.63989L10.3248 2.87571L9.94965 2.90649L9.97939 3.09326L10.1103 3.14752L10.1051 3.20908L9.79992 3.25238L9.77749 3.42925L9.48585 3.44438L9.43315 3.09274L8.90987 3.25186L7.84035 3.87792L7.96035 4.31877L8.25929 4.5139L8.85718 4.59633V5.27612L9.13369 5.23178L9.38829 4.70067L10.0243 4.49929V3.68384L10.378 3.41673L11.2331 3.61863L11.1731 4.15756H11.4026L12.0313 3.84871L12.0616 4.55615L12.5191 4.83527L12.4998 5.25473L12.0616 5.40394L12.0913 5.54272L12.6198 5.78323L12.6088 6.07226L12.456 6.08531C12.4557 6.08265 12.4552 6.08003 12.4544 6.07748L11.7877 5.87192L11.7595 5.65802H11.759L11.9541 5.52394V5.32882L11.7444 5.27612L11.6922 5.45612L11.3244 5.51298L11.2879 5.50098V5.51924L11.1606 5.53855L11.0567 5.32882L10.9367 5.27612H10.6748L10.5559 5.37421V5.59124L10.7797 5.66585L11.0009 5.69715L10.9513 5.71906L10.7494 5.94288L10.6608 5.83123L10.4656 5.77958L9.934 6.27938L10.0034 6.33625L9.21873 6.77084L8.4805 7.53881L8.42989 7.88053L7.6901 8.36677L7.32333 8.73562L7.36403 9.47333L6.85535 9.23647L6.85901 8.80501L5.44359 8.80553L4.71058 9.17648L4.39233 9.76341L4.26608 10.2288L4.47215 10.6801L5.04969 10.7505L5.96739 10.137L6.04774 10.4411L5.76758 10.9701L6.46615 11.0896L6.53606 12.1685L7.49341 12.3313L8.10173 11.628L8.83996 11.7783L9.09926 12.1388L9.80723 12.097L9.82705 11.8878L10.2163 12.0767L10.655 12.7643L11.4125 12.7748L11.6922 13.2641L11.7318 13.862L12.5697 14.1808L13.6267 14.1917L13.9361 14.6994L14.4046 14.8496L14.3149 15.2696L13.8015 15.9217L13.6518 17.3664L13.1879 17.7326L12.5003 17.7123L12.2713 18.1109L12.4414 18.8601L11.6927 19.8169L11.4538 20.2562L10.7406 20.5984L10.2716 20.6699L10.2522 20.8687L10.5815 20.9631L10.5418 21.1775L10.247 21.4613L10.426 21.6872L10.7807 21.6971L10.7609 21.9705L10.6665 22.2403L10.6362 22.4594L11.1611 22.9013L11.0912 23.1308L10.3769 23.1173L9.66636 22.4975L9.11282 21.5245L9.19003 20.5854L8.7711 20.0266L8.94065 19.0797L8.6918 19.0103V16.9558C8.6918 16.9558 7.99374 16.4268 7.95357 16.4268C7.91339 16.4268 7.58419 16.337 7.58419 16.337L7.51428 15.9489L6.60702 14.8115L6.69675 14.403L6.72649 13.7347L7.35464 13.2954L7.2649 12.5473L6.34772 12.4784L5.62984 11.6604L5.12117 11.5195L4.79249 11.459L4.83214 11.16L4.4132 11.1006V11.2701L3.36559 11.0087L2.94405 10.3639L3.11569 10.0514L2.45259 9.08361L2.33885 8.37564H2.06965L2.15886 9.06326L2.61745 9.77123L2.56737 10.0509L2.17869 9.99087L1.70027 9.17543V8.22643L1.20151 7.98696V7.30404C0.56827 8.78856 0.242592 10.3861 0.244163 12C0.244163 18.6169 5.62723 24 12.2442 24C15.9953 24 19.3489 22.2689 21.5511 19.5644H21.1551V18.7667L20.697 18.15V17.1906L20.3475 16.8421L20.3167 16.4429L20.7612 15.5952L19.9197 14.1088L20.0183 13.1003L19.2607 13.022L18.9816 12.7429H18.4724L18.2136 12.9819H17.3158L17.2855 13.0617H16.7862L15.6405 11.7558L15.6499 10.7385L15.8393 10.6691L15.9097 10.2799H15.6405L15.5305 9.8714L16.8561 8.91457V8.23634L17.5052 7.87584L17.7681 7.90192H18.3018L18.7197 7.67758L20.0663 7.57272V8.26086L21.1311 8.53059ZM17.765 4.25199L17.8745 4.08296L18.2689 4.00313L18.3675 4.48207L18.5773 4.82066L18.7166 4.98083L18.9707 5.07996L18.7312 5.36481L18.2674 5.40916H17.9189L17.958 4.99544L18.2481 4.93544L18.2236 4.74084L17.9533 4.57128L17.7644 4.4419L17.765 4.25199ZM17.1175 5.00013L17.357 4.61615L17.6799 4.54103L17.9095 4.64067L17.8886 4.89997L17.3951 5.24899H17.1165V5.00013H17.1175ZM10.5976 6.47607L10.3477 6.49694L10.3613 6.32321L10.4729 6.18391L10.6232 6.30182L10.5976 6.47607ZM11.4736 6.1693L11.303 6.18391L11.2686 6.34877L11.1371 6.43068L10.9263 6.44842C10.919 6.39886 10.9148 6.36129 10.9148 6.36129H10.8329V6.18391H11.1767L11.2477 6.00079L11.3844 5.99818L11.5404 6.03053L11.4736 6.1693Z" fill="#999999"/>
</g>
</g>
<defs>
<clipPath id="clip0_77_161">
<rect width="24" height="24" fill="white"/>
</clipPath>
</defs>
</svg>
