<svg width="24" height="24" viewBox="0 0 24 24" fill="none" xmlns="http://www.w3.org/2000/svg">
<g id="Frame" clip-path="url(#clip0_77_231)">
<g id="Group">
<g id="Layer 2">
<g id="09.whatsapp">
<path id="Vector" d="M12 24C18.6274 24 24 18.6274 24 12C24 5.37258 18.6274 0 12 0C5.37258 0 0 5.37258 0 12C0 18.6274 5.37258 24 12 24Z" fill="#C0C0C0"/>
<g id="Group_2">
<path id="Vector_2" d="M17.2909 6.70914C16.0424 5.44818 14.3844 4.67488 12.616 4.52872C10.8475 4.38255 9.08505 4.87315 7.64647 5.91202C6.20789 6.95088 5.18789 8.46963 4.77047 10.1943C4.35305 11.919 4.56567 13.7361 5.37 15.3178L4.58045 19.151C4.57226 19.1891 4.57203 19.2285 4.57977 19.2668C4.58752 19.305 4.60307 19.3413 4.62545 19.3732C4.65825 19.4217 4.70506 19.4591 4.75964 19.4803C4.81422 19.5015 4.87397 19.5055 4.93091 19.4919L8.68773 18.6014C10.265 19.3854 12.0692 19.5843 13.7794 19.1629C15.4896 18.7414 16.9948 17.7269 18.0272 16.2998C19.0596 14.8727 19.5522 13.1257 19.4174 11.3695C19.2825 9.6133 18.529 7.96191 17.2909 6.70914ZM16.1195 16.0582C15.2557 16.9196 14.1434 17.4883 12.9392 17.684C11.7351 17.8797 10.4999 17.6926 9.40773 17.1491L8.88409 16.89L6.58091 17.4355L6.58773 17.4069L7.065 15.0887L6.80864 14.5828C6.25058 13.4868 6.05372 12.2423 6.24625 11.0276C6.43879 9.81284 7.01084 8.69021 7.88045 7.8205C8.97314 6.72815 10.4549 6.11451 12 6.11451C13.5451 6.11451 15.0269 6.72815 16.1195 7.8205C16.1289 7.83118 16.1389 7.8412 16.1495 7.8505C17.2287 8.94567 17.8311 10.423 17.8255 11.9605C17.8199 13.498 17.2067 14.971 16.1195 16.0582Z" fill="white"/>
<path id="Vector_3" d="M15.915 14.3578C15.6327 14.8024 15.1868 15.3465 14.6264 15.4815C13.6445 15.7187 12.1377 15.4896 10.2627 13.7415L10.2395 13.721C8.59091 12.1924 8.16273 10.9201 8.26636 9.91101C8.32364 9.33828 8.80091 8.8201 9.20318 8.48192C9.26678 8.42764 9.3422 8.38899 9.4234 8.36907C9.50461 8.34915 9.58935 8.34851 9.67084 8.36719C9.75234 8.38588 9.82834 8.42337 9.89275 8.47668C9.95717 8.52999 10.0082 8.59763 10.0418 8.67419L10.6486 10.0378C10.6881 10.1262 10.7027 10.2237 10.6909 10.3198C10.6791 10.4159 10.6414 10.507 10.5818 10.5833L10.275 10.9815C10.2092 11.0637 10.1694 11.1637 10.1609 11.2687C10.1524 11.3737 10.1755 11.4788 10.2273 11.5706C10.3991 11.8719 10.8109 12.3151 11.2677 12.7256C11.7805 13.1892 12.3491 13.6133 12.7091 13.7578C12.8054 13.7972 12.9113 13.8068 13.0132 13.7854C13.115 13.764 13.2081 13.7126 13.2805 13.6378L13.6364 13.2792C13.705 13.2115 13.7904 13.1632 13.8839 13.1392C13.9773 13.1153 14.0754 13.1165 14.1682 13.1428L15.6095 13.5519C15.6891 13.5763 15.7619 13.6186 15.8226 13.6754C15.8833 13.7323 15.9302 13.8023 15.9596 13.8801C15.9891 13.9578 16.0004 14.0413 15.9927 14.1241C15.9849 14.2069 15.9584 14.2869 15.915 14.3578Z" fill="white"/>
</g>
</g>
</g>
</g>
</g>
<defs>
<clipPath id="clip0_77_231">
<rect width="24" height="24" fill="white"/>
</clipPath>
</defs>
</svg>
