<svg xmlns="http://www.w3.org/2000/svg" width="20" height="20" viewBox="0 0 20 20" fill="none">
  <mask id="mask0_208_22302" style="mask-type:alpha" maskUnits="userSpaceOnUse" x="0" y="0" width="20" height="20">
    <rect width="20" height="20" fill="#D9D9D9"/>
  </mask>
  <g mask="url(#mask0_208_22302)">
    <path d="M4.9987 18.3333C4.54036 18.3333 4.148 18.1701 3.82161 17.8438C3.49523 17.5174 3.33203 17.125 3.33203 16.6667V8.33334C3.33203 7.87501 3.49523 7.48265 3.82161 7.15626C4.148 6.82987 4.54036 6.66668 4.9987 6.66668H5.83203V5.00001C5.83203 3.84723 6.23828 2.86459 7.05078 2.05209C7.86328 1.23959 8.84592 0.833344 9.9987 0.833344C11.1515 0.833344 12.1341 1.23959 12.9466 2.05209C13.7591 2.86459 14.1654 3.84723 14.1654 5.00001V6.66668H14.9987C15.457 6.66668 15.8494 6.82987 16.1758 7.15626C16.5022 7.48265 16.6654 7.87501 16.6654 8.33334V16.6667C16.6654 17.125 16.5022 17.5174 16.1758 17.8438C15.8494 18.1701 15.457 18.3333 14.9987 18.3333H4.9987ZM9.9987 14.1667C10.457 14.1667 10.8494 14.0035 11.1758 13.6771C11.5022 13.3507 11.6654 12.9583 11.6654 12.5C11.6654 12.0417 11.5022 11.6493 11.1758 11.3229C10.8494 10.9965 10.457 10.8333 9.9987 10.8333C9.54036 10.8333 9.148 10.9965 8.82161 11.3229C8.49523 11.6493 8.33203 12.0417 8.33203 12.5C8.33203 12.9583 8.49523 13.3507 8.82161 13.6771C9.148 14.0035 9.54036 14.1667 9.9987 14.1667ZM7.4987 6.66668H12.4987V5.00001C12.4987 4.30557 12.2556 3.71529 11.7695 3.22918C11.2834 2.74307 10.6931 2.50001 9.9987 2.50001C9.30425 2.50001 8.71398 2.74307 8.22786 3.22918C7.74175 3.71529 7.4987 4.30557 7.4987 5.00001V6.66668Z" fill="#666666"/>
  </g>
</svg>
