<svg xmlns="http://www.w3.org/2000/svg" width="20" height="20" viewBox="0 0 20 20" fill="none">
  <mask id="mask0_208_22309" style="mask-type:alpha" maskUnits="userSpaceOnUse" x="0" y="0" width="20" height="20">
    <rect width="20" height="20" fill="#D9D9D9"/>
  </mask>
  <g mask="url(#mask0_208_22309)">
    <path d="M9.9987 19.1667L3.9987 14.6667C3.79036 14.5139 3.62717 14.3194 3.50911 14.0833C3.39106 13.8472 3.33203 13.5972 3.33203 13.3333V3.33332C3.33203 2.87499 3.49523 2.48263 3.82161 2.15624C4.148 1.82985 4.54036 1.66666 4.9987 1.66666H14.9987C15.457 1.66666 15.8494 1.82985 16.1758 2.15624C16.5022 2.48263 16.6654 2.87499 16.6654 3.33332V13.3333C16.6654 13.5972 16.6063 13.8472 16.4883 14.0833C16.3702 14.3194 16.207 14.5139 15.9987 14.6667L9.9987 19.1667ZM9.1237 12.5L13.832 7.79166L12.6654 6.58332L9.1237 10.125L7.3737 8.37499L6.16536 9.54166L9.1237 12.5Z" fill="#666666"/>
  </g>
</svg>
